<svg id="Laag_1" data-name="Laag 1" xmlns="http://www.w3.org/2000/svg" xmlns:xlink="http://www.w3.org/1999/xlink" viewBox="0 0 120 120"><defs><style>.cls-1{fill:url(#Naamloos_verloop_9);}.cls-2{fill:url(#Naamloos_verloop_9-2);}.cls-3{fill:url(#Naamloos_verloop_9-3);}</style><linearGradient id="Naamloos_verloop_9" y1="66.34" x2="41.27" y2="66.34" gradientUnits="userSpaceOnUse"><stop offset="0" stop-color="#2259a5"/><stop offset="1" stop-color="#472562"/></linearGradient><linearGradient id="Naamloos_verloop_9-2" x1="41.92" y1="53.69" x2="78.79" y2="53.69" xlink:href="#Naamloos_verloop_9"/><linearGradient id="Naamloos_verloop_9-3" x1="78.73" y1="66.34" x2="120" y2="66.34" xlink:href="#Naamloos_verloop_9"/></defs><title>php_portfolio</title><path class="cls-1" d="M9.5,42.54h17.8q7.84.07,11.36,4.52T41,59.2a23.33,23.33,0,0,1-2.06,6.91,20.53,20.53,0,0,1-4.25,6.11,14.83,14.83,0,0,1-7.11,4.38,32.73,32.73,0,0,1-7.84.93h-8L9.23,90.15H0L9.5,42.54h0m7.77,7.57L13.28,70a4.84,4.84,0,0,0,.8.07H15a34.92,34.92,0,0,0,10.62-1.26q4.25-1.39,5.71-9.7,1.2-7-2.39-8a29.77,29.77,0,0,0-8.83-1q-.8.07-1.53.07H17.2l.07-.07"/><path class="cls-2" d="M51.49,29.85h9.16L58.06,42.54h8.23q6.77.13,10.09,2.79t2,10.09L73.93,77.53h-9.3l4.25-21.12q.66-3.32-.4-4.71T63.9,50.3l-7.37-.07L51.09,77.53H41.92l9.56-47.68h0"/><path class="cls-3" d="M88.22,42.54H106q7.84.07,11.36,4.52T119.7,59.2a23.33,23.33,0,0,1-2.06,6.91,20.53,20.53,0,0,1-4.25,6.11,14.83,14.83,0,0,1-7.11,4.38,32.73,32.73,0,0,1-7.84.93h-8L88,90.15H78.73l9.5-47.61h0M96,50.11,92,70a4.84,4.84,0,0,0,.8.07h.93a34.92,34.92,0,0,0,10.62-1.26q4.25-1.39,5.71-9.7,1.2-7-2.39-8a29.77,29.77,0,0,0-8.83-1q-.8.07-1.53.07H95.92l.07-.07"/></svg>