<svg id="Layer_1" data-name="Layer 1" xmlns="http://www.w3.org/2000/svg" viewBox="0 0 141.73 141.73"><defs><style>.cls-1{fill:#e6a329;}.cls-2{fill:#f1bf22;}.cls-3{fill:#fff;}.cls-4{fill:#ebebeb;}.cls-5{fill:#231f20;}</style></defs><title>javascript</title><polygon class="cls-1" points="111.14 36.4 70.87 36.4 70.87 36.4 30.59 36.4 38.14 118.28 70.87 127.56 70.87 127.56 70.87 127.56 70.87 127.56 70.87 127.56 103.58 118.28 111.14 36.4"/><polygon class="cls-2" points="70.87 43.07 70.87 120.63 70.87 120.63 97.37 113.11 103.82 43.07 70.87 43.07"/><polygon class="cls-3" points="91.95 53.11 51.19 53.11 48.35 83.77 48.41 83.58 83.04 83.58 81.91 96.55 70.87 99.73 59.65 96.5 58.98 88.65 48.8 88.65 50.25 104.34 70.87 110.19 91.48 104.34 94.31 73.56 57.57 73.56 58.04 63.29 83.54 63.29 83.92 69.17 94.19 69.17 91.95 53.11"/><path class="cls-4" d="M70.87,53.11H51.19L48.35,83.77l.06-.19H70.87v-10H59l.47-10.26H70.87ZM59,88.65H48.8l1.45,15.68,20.61,5.84V99.74L59.65,96.5Z"/><polygon class="cls-5" points="63.03 24.32 55.87 24.32 55.87 29.46 63.03 29.46 66.86 29.46 68.16 29.46 68.16 14.17 63.03 14.17 63.03 24.32"/><path class="cls-5" d="M85.87,14.25H73.37V19.6c1.67,1.67,2.54,2.47,5,4.89h-5v4.88H85.87V24.5l-5-4.89h5Z"/></svg>