<svg id="Laag_1" data-name="Laag 1" xmlns="http://www.w3.org/2000/svg" xmlns:xlink="http://www.w3.org/1999/xlink" viewBox="0 0 120 120"><defs><style>.cls-1{fill:url(#Naamloos_verloop_9);}.cls-2{fill:url(#Naamloos_verloop_9-2);}</style><linearGradient id="Naamloos_verloop_9" x1="37.5" y1="8.2" x2="81.33" y2="8.2" gradientUnits="userSpaceOnUse"><stop offset="0" stop-color="#2259a5"/><stop offset="1" stop-color="#472562"/></linearGradient><linearGradient id="Naamloos_verloop_9-2" x1="17.49" y1="71.79" x2="102.51" y2="71.79" xlink:href="#Naamloos_verloop_9"/></defs><title>css_portfolio</title><g id="g3013"><path class="cls-1" d="M37.5,0H50.39V5.39h-7.5v5.39h7.5v5.39H37.5ZM53,0H65.86V4.69h-7.5v.94h7.5V16.41H53V11.48h7.5v-.94H53ZM68.44,0H81.33V4.69h-7.5v.94h7.5V16.41H68.44V11.48h7.5v-.94h-7.5Z"/><path class="cls-2" d="M17.49,23.58l7.74,86.78L59.95,120l34.81-9.65,7.75-86.77ZM84.7,62.86l-.26,2.86-2.5,28-.16,1.8-21.78,6h0l-21.8-6.05L36.66,78.83H47.34l.76,8.49L60,90.52h0l11.87-3.2,1.24-13.8H36.18l-1-10.64H74L75,52H34.28l-1-10.64H86.62Z"/></g></svg>