<svg id="Laag_1" data-name="Laag 1" xmlns="http://www.w3.org/2000/svg" xmlns:xlink="http://www.w3.org/1999/xlink" viewBox="0 0 120 120"><defs><style>.cls-1{fill:url(#Naamloos_verloop_9);}.cls-2{fill:url(#Naamloos_verloop_9-2);}</style><linearGradient id="Naamloos_verloop_9" x1="25.41" y1="8.09" x2="94.76" y2="8.09" gradientUnits="userSpaceOnUse"><stop offset="0" stop-color="#2259a5"/><stop offset="1" stop-color="#472562"/></linearGradient><linearGradient id="Naamloos_verloop_9-2" x1="17.48" y1="71.79" x2="102.52" y2="71.79" xlink:href="#Naamloos_verloop_9"/></defs><title>html_portfolio</title><path class="cls-1" d="M25.41,0H30.8V5.34h5V0h5.39V16.17H35.77V10.78H30.84v5.39H25.41M48.28,5.39H43.52V0H58.45V5.39H53.67V16.17H48.28M60.82,0h5.65l3.47,5.7L73.41,0h5.65V16.17H73.66v-8L69.89,14,66.12,8.16v8h-5.3M81.73,0h5.39V10.83h7.64v5.34h-13"/><path class="cls-2" d="M17.48,23.58l7.73,86.81L59.93,120l34.85-9.66,7.73-86.77ZM85.64,52H45l1,10.9H84.68L81.75,95.53l-21.75,6v0L38.16,95.53l-1.5-16.71H47.34l.75,8.51L60,90.51l11.87-3.18L73.08,73.5H60v0H36.19L33.28,41.32H86.63Z"/></svg>