<svg id="Laag_1" data-name="Laag 1" xmlns="http://www.w3.org/2000/svg" xmlns:xlink="http://www.w3.org/1999/xlink" viewBox="0 0 120 120"><defs><style>.cls-1{fill:url(#Naamloos_verloop_9);}.cls-2{fill:url(#Naamloos_verloop_9-2);}</style><linearGradient id="Naamloos_verloop_9" x1="17.38" y1="71.76" x2="102.62" y2="71.76" gradientUnits="userSpaceOnUse"><stop offset="0" stop-color="#2259a5"/><stop offset="1" stop-color="#472562"/></linearGradient><linearGradient id="Naamloos_verloop_9-2" x1="44.13" y1="8.09" x2="75.88" y2="8.09" xlink:href="#Naamloos_verloop_9"/></defs><title>javascript_portfolio</title><path class="cls-1" d="M60,23.53H17.38l8,86.65L60,120l34.62-9.82,8-86.65Zm21.81,71.9L60,101.62,38.18,95.43h0l-1.53-16.6H47.42l.71,8.31L60,90.55l11.68-3.37,1.19-13.72H36.24l-.07.2,3-32.45H82.31l2.37,17H73.82L73.41,52H60v0H47.94l-.5,10.84H84.81Z"/><path class="cls-2" d="M51.71,10.74H44.13v5.44h13V0H51.71ZM75.88.08H62.65V5.75c1.77,1.77,2.69,2.61,5.29,5.18H62.65v5.16H75.88V10.93L70.59,5.76h5.29Z"/></svg>