<svg id="Laag_1" data-name="Laag 1" xmlns="http://www.w3.org/2000/svg" xmlns:xlink="http://www.w3.org/1999/xlink" viewBox="0 0 120 120"><defs><style>.cls-1{fill:url(#Naamloos_verloop_9);}</style><linearGradient id="Naamloos_verloop_9" y1="60" x2="120" y2="60" gradientUnits="userSpaceOnUse"><stop offset="0" stop-color="#2259a5"/><stop offset="1" stop-color="#472562"/></linearGradient></defs><title>laravel_portfolio</title><path class="cls-1" d="M119.53,57.3c-.81-.89-11.78-14.65-13.73-17s-2.87-1.92-4.07-1.73L85,41.37c-1.62.28-2.62.92-1.64,2.31.89,1.23,10,14.2,12,17L59.08,69.44,30.23,21.13c-1.14-1.7-1.39-2.31-4-2.17S3.55,20.74,2.13,20.85-.88,21.6.57,25,24.77,77.4,25.41,78.82s2.28,3.73,6.15,2.81,17.68-4.54,25.17-6.49c4,7.18,12.06,21.72,13.53,23.81,2,2.78,3.37,2.31,6.43,1.39,2.39-.72,37.42-13.31,39-14s2.56-1.11,1.48-2.7c-.78-1.17-10-13.53-14.87-20,3.31-.89,15.09-4,16.37-4.37C120.14,58.91,120.33,58.19,119.53,57.3Zm-66,13.5c-.45.08-20.77,5-21.86,5.21s-1.09.11-1.2-.25-24.2-50-24.53-50.62S5.58,24,5.89,24s19.21-1.7,19.88-1.73.58.11.84.53L53.73,69.63C54.2,70.47,53.92,70.72,53.48,70.8Zm57.39,10.75c.33.5.64.84-.36,1.2S76.06,94.39,75.42,94.67s-1.17.36-2-.84-11.69-20-11.69-20l35.42-9.22c.89-.28,1.17-.47,1.73.42S110.53,81.05,110.87,81.55Zm2.26-25.14c-.81.17-13.81,3.4-13.81,3.4L88.67,45.21c-.31-.42-.56-.84.19-.95s12.84-2.28,13.37-2.39a1.33,1.33,0,0,1,1.7.64c.67.92,9.86,12.56,10.22,13S113.93,56.24,113.12,56.41Z"/></svg>