<svg id="Laag_1" data-name="Laag 1" xmlns="http://www.w3.org/2000/svg" xmlns:xlink="http://www.w3.org/1999/xlink" viewBox="0 0 120 120"><defs><style>.cls-1{fill:url(#Naamloos_verloop_9);}.cls-2{fill:url(#Naamloos_verloop_9-2);}</style><linearGradient id="Naamloos_verloop_9" y1="60" x2="120" y2="60" gradientUnits="userSpaceOnUse"><stop offset="0" stop-color="#2259a5"/><stop offset="1" stop-color="#472562"/></linearGradient><linearGradient id="Naamloos_verloop_9-2" x1="48.8" y1="60.01" x2="71.15" y2="60.01" xlink:href="#Naamloos_verloop_9"/></defs><title>react_portfolio</title><path class="cls-1" d="M120,60c0-7.95-10-15.48-25.22-20.15,3.52-15.56,2-27.93-4.94-31.9a10.72,10.72,0,0,0-5.48-1.37V12a5.66,5.66,0,0,1,2.79.64c3.33,1.91,4.77,9.17,3.64,18.52-.27,2.3-.71,4.72-1.25,7.19A118.54,118.54,0,0,0,74,35.72,119.32,119.32,0,0,0,63.84,23.49C71.81,16.08,79.3,12,84.39,12V6.57h0c-6.73,0-15.53,4.79-24.44,13.11-8.9-8.27-17.71-13-24.44-13v5.45c5.06,0,12.57,4,20.55,11.4A115.53,115.53,0,0,0,46,35.72,114.22,114.22,0,0,0,30.4,38.41c-.56-2.45-1-4.82-1.27-7.09C28,22,29.4,14.71,32.7,12.78a5.44,5.44,0,0,1,2.81-.64V6.69h0A10.91,10.91,0,0,0,30,8.06c-6.87,4-8.41,16.31-4.87,31.82C9.91,44.58,0,52.09,0,60S10,75.5,25.22,80.17c-3.52,15.56-2,27.93,4.94,31.9a10.75,10.75,0,0,0,5.5,1.37c6.73,0,15.53-4.79,24.44-13.11,8.9,8.27,17.71,13,24.44,13A10.91,10.91,0,0,0,90.06,112c6.87-4,8.41-16.31,4.87-31.82C110.09,75.47,120,67.94,120,60ZM88.15,43.7c-.91,3.16-2,6.41-3.3,9.66-1-2-2.05-3.91-3.2-5.87s-2.32-3.86-3.52-5.72C81.6,42.28,84.95,42.91,88.15,43.7ZM77,69.75C75,73,73.09,76.18,71.06,79.09c-3.64.32-7.34.49-11.06.49s-7.39-.17-11-.46q-3-4.37-5.92-9.29T38,60.09c1.52-3.28,3.23-6.56,5.06-9.76s3.86-6.43,5.89-9.34c3.64-.32,7.34-.49,11.06-.49s7.39.17,11,.46q3,4.37,5.92,9.29T82,60C80.47,63.27,78.79,66.54,77,69.75Zm7.9-3.18c1.32,3.28,2.45,6.56,3.38,9.74-3.2.78-6.58,1.44-10.08,2,1.2-1.88,2.4-3.82,3.52-5.8S83.85,68.52,84.85,66.57ZM60,92.67a100.84,100.84,0,0,1-6.8-7.83c2.2.1,4.45.17,6.73.17s4.57,0,6.8-.17A95.47,95.47,0,0,1,60,92.67ZM41.85,78.26c-3.47-.51-6.82-1.15-10-1.93.91-3.16,2-6.41,3.3-9.66,1,2,2.05,3.91,3.2,5.87S40.65,76.4,41.85,78.26Zm18.08-50.9a100.84,100.84,0,0,1,6.8,7.83c-2.2-.1-4.45-.17-6.73-.17s-4.57,0-6.8.17A95.47,95.47,0,0,1,59.93,27.36ZM41.83,41.77c-1.2,1.88-2.4,3.82-3.52,5.8s-2.18,3.91-3.18,5.87c-1.32-3.28-2.45-6.56-3.38-9.74C35,42.94,38.33,42.28,41.83,41.77ZM19.69,72.39C11,68.7,5.43,63.85,5.43,60S11,51.3,19.69,47.64c2.1-.91,4.4-1.71,6.78-2.47A117.48,117.48,0,0,0,32,60.06a115.82,115.82,0,0,0-5.43,14.82C24.12,74.13,21.82,73.29,19.69,72.39Zm13.16,35c-3.33-1.91-4.77-9.17-3.64-18.52.27-2.3.71-4.72,1.25-7.19A118.54,118.54,0,0,0,46,84.3,119.32,119.32,0,0,0,56.16,96.53C48.19,103.94,40.7,108,35.61,108A5.84,5.84,0,0,1,32.85,107.34Zm58-18.64C92,98,90.6,105.31,87.3,107.24a5.44,5.44,0,0,1-2.81.64c-5.06,0-12.57-4-20.55-11.4A115.53,115.53,0,0,0,74,84.28,114.22,114.22,0,0,0,89.6,81.59,68.48,68.48,0,0,1,90.87,88.7Zm9.42-16.31c-2.1.91-4.4,1.71-6.78,2.47A117.48,117.48,0,0,0,88,60a115.82,115.82,0,0,0,5.43-14.82c2.42.76,4.72,1.59,6.87,2.49C109,51.33,114.57,56.17,114.57,60S108.94,68.72,100.29,72.39Z"/><circle class="cls-2" cx="59.98" cy="60.01" r="11.18"/></svg>